<?xml version="1.0" encoding="UTF-8" standalone="no"?>
<!DOCTYPE svg PUBLIC "-//W3C//DTD SVG 1.1//EN" "http://www.w3.org/Graphics/SVG/1.1/DTD/svg11.dtd">
<svg width="100%" height="100%" viewBox="0 0 3301 892" version="1.1" xmlns="http://www.w3.org/2000/svg" xmlns:xlink="http://www.w3.org/1999/xlink" xml:space="preserve" xmlns:serif="http://www.serif.com/" style="fill-rule:evenodd;clip-rule:evenodd;stroke-linejoin:round;stroke-miterlimit:2;">
    <g transform="matrix(1,0,0,1,0,-4935.85)">
        <g id="Artboard1" transform="matrix(1.71523,0,0,0.533381,0,3509.04)">
            <rect x="0" y="2675.03" width="1924.44" height="1670.78"/>
            <g transform="matrix(0.472538,0,0,1.51957,-273.663,-1224.81)">
                <text x="1771.07px" y="3299.56px" style="font-family:'Electrolize-Regular', 'Electrolize';font-size:640.173px;fill:white;">Bayesian</text>
            </g>
            <g transform="matrix(0.578457,0,0,1.89774,261.618,3510.42)">
                <g transform="matrix(1,0,0,1,-400,-400)">
                    <path d="M300,600L400,600L400,700L100,700L100,600L200,600L200,500L300,500L300,600ZM700,600L700,500L600,500L600,600L700,600ZM100,400L100,500L200,500L200,400L100,400ZM500,700L600,700L600,600L500,600L500,700ZM600,300L600,400L700,400L700,100L600,100L600,200L500,200L500,300L600,300ZM500,400L500,300L400,300L400,200L500,200L500,100L200,100L200,200L100,200L100,300L200,300L200,400L300,400L300,500L400,500L400,600L500,600L500,500L600,500L600,400L500,400Z" style="fill:white;fill-rule:nonzero;"/>
                </g>
            </g>
        </g>
    </g>
</svg>
