<?xml version="1.0" encoding="utf-8"?>
<svg width="250" height="40" viewBox="0 0 250 40" version="1.1" xmlns="http://www.w3.org/2000/svg">
  <defs>
    <style>
      @import url('https://fonts.googleapis.com/css2?family=Space+Grotesk:wght@500&amp;display=swap');
    </style>
  </defs>
  
  <!-- Original icon, scaled and colored -->
  <g transform="translate(0,4) scale(0.1)">
    <path fill="#265cff" d="M12 24h4v4h-12v-4h4v-4h4v4zM28 24v-4h-4v4h4zM4 16v4h4v-4h-4zM20 28h4v-4h-4v4zM24 12v4h4v-12h-4v4h-4v4h4zM20 16v-4h-4v-4h4v-4h-12v4h-4v4h4v4h4v4h4v-4h4v-4h-4z"/>
  </g>
  
  <!-- Bayesian Energy text -->
  <text x="45" y="25" font-family="Space Grotesk" font-size="24" fill="#52525C" letter-spacing="0.05em">
    Bayesian Energy
  </text>
</svg>
